<?xml version="1.0" encoding="UTF-8" standalone="no"?>
<!-- Created with Inkscape (http://www.inkscape.org/) -->

<svg
   xmlns:dc="http://purl.org/dc/elements/1.1/"
   xmlns:cc="http://creativecommons.org/ns#"
   xmlns:rdf="http://www.w3.org/1999/02/22-rdf-syntax-ns#"
   xmlns:svg="http://www.w3.org/2000/svg"
   xmlns="http://www.w3.org/2000/svg"
   xmlns:sodipodi="http://sodipodi.sourceforge.net/DTD/sodipodi-0.dtd"
   xmlns:inkscape="http://www.inkscape.org/namespaces/inkscape"
   version="1.1"
   id="svg815"
   width="3201"
   height="3201"
   viewBox="0 0 3201 3201"
   sodipodi:docname="close.svg"
   inkscape:version="0.92.2 (5c3e80d, 2017-08-06)">
  <metadata
     id="metadata821">
    <rdf:RDF>
      <cc:Work
         rdf:about="">
        <dc:format>image/svg+xml</dc:format>
        <dc:type
           rdf:resource="http://purl.org/dc/dcmitype/StillImage" />
        <dc:title></dc:title>
      </cc:Work>
    </rdf:RDF>
  </metadata>
  <defs
     id="defs819" />
  <sodipodi:namedview
     pagecolor="#ffffff"
     bordercolor="#666666"
     borderopacity="1"
     objecttolerance="10"
     gridtolerance="10"
     guidetolerance="10"
     inkscape:pageopacity="0"
     inkscape:pageshadow="2"
     inkscape:window-width="1920"
     inkscape:window-height="1017"
     id="namedview817"
     showgrid="false"
     inkscape:zoom="0.26491721"
     inkscape:cx="1600.5"
     inkscape:cy="1600.5"
     inkscape:window-x="-8"
     inkscape:window-y="-8"
     inkscape:window-maximized="1"
     inkscape:current-layer="svg815" />
  <path
     style="fill:#000000"
     d="M 185,3199.9516 C 131.58363,3193.3771 85.27046,3169.1011 51.707184,3130.0834 25.8946,3100.0759 9.495356,3064.1992 3.44497,3024.5 c -2.248441,-14.753 -2.253904,-43.1858 -0.01114,-58 5.607528,-37.0396 20.966852,-72.1748 43.933558,-100.5 3.344642,-4.125 288.692742,-290.4413 634.106892,-636.2585 345.41412,-345.8172 628.14262,-629.1054 628.28552,-629.5293 0.1428,-0.4239 -282.1767,-282.6646 -627.37677,-627.20147 C 337.18297,628.47383 51.700527,342.96201 47.977608,338.54 27.105467,313.74853 11.297068,281.17528 4.591477,249.14277 -6.859392,194.44213 3.911147,138.02164 34.606012,91.914349 81.307514,21.763216 166.1691,-12.777985 249.14277,4.5914773 280.97145,11.254398 313.26184,26.866593 338.15221,47.626956 342.47154,51.229584 628.38685,336.84105 973.51958,682.31911 L 1601.0336,1310.461 2229.7668,681.87924 C 2575.5701,336.15925 2861.875,50.594916 2866,47.291829 c 28.9113,-23.150704 63.546,-38.264971 100.5,-43.8573546 14.9145,-2.257067 43.3159,-2.2584237 58,-0.00277 22.1021,3.3951436 41.6449,9.4597826 61,18.9299196 59.9603,29.337567 100.8314,83.824716 112.6198,150.138376 3.0129,16.94875 3.288,50.21915 0.5453,65.95705 -6.3567,36.47616 -18.8128,65.2941 -40.6658,94.08241 -4.8993,6.45422 -169.8316,171.90241 -576.6961,578.5 -313.409,313.20334 -596.7149,596.23044 -629.5688,628.94914 -32.8539,32.7187 -59.7344,60.1689 -59.7344,61.0003 0,0.8314 281.7317,283.2116 626.0704,627.5114 344.3387,344.2998 629.4953,630.0497 633.6814,634.9997 51.4702,60.8631 62.7103,147.1637 28.5859,219.4798 -10.4316,22.1064 -22.7926,39.5425 -40.8035,57.5564 -19.0686,19.0717 -39.3937,32.9336 -63.4432,43.2687 -67.822,29.1461 -144.4579,19.9244 -204.8594,-24.6511 -6.4881,-4.7881 -170.7592,-168.4334 -639.3357,-636.9002 -397.3601,-397.2671 -631.1761,-630.3265 -632.1507,-630.105 -0.8506,0.1933 -158.2739,157.4014 -349.8295,349.3514 -746.14938,747.6856 -907.99728,909.3798 -917.35342,916.482 -28.69292,21.7806 -58.05968,34.5053 -93.57622,40.5468 -11.23583,1.9112 -43.17774,2.7531 -53.98606,1.4228 z"
     id="path825"
     inkscape:connector-curvature="0" />
</svg>
