<?xml version="1.0" encoding="UTF-8" standalone="no"?>
<!-- Created with Inkscape (http://www.inkscape.org/) -->

<svg
   xmlns:dc="http://purl.org/dc/elements/1.1/"
   xmlns:cc="http://creativecommons.org/ns#"
   xmlns:rdf="http://www.w3.org/1999/02/22-rdf-syntax-ns#"
   xmlns:svg="http://www.w3.org/2000/svg"
   xmlns="http://www.w3.org/2000/svg"
   xmlns:sodipodi="http://sodipodi.sourceforge.net/DTD/sodipodi-0.dtd"
   xmlns:inkscape="http://www.inkscape.org/namespaces/inkscape"
   version="1.1"
   id="svg815"
   width="500"
   height="500"
   viewBox="0 0 500 500"
   sodipodi:docname="error.svg"
   inkscape:version="0.92.2 (5c3e80d, 2017-08-06)">
  <metadata
     id="metadata821">
    <rdf:RDF>
      <cc:Work
         rdf:about="">
        <dc:format>image/svg+xml</dc:format>
        <dc:type
           rdf:resource="http://purl.org/dc/dcmitype/StillImage" />
        <dc:title></dc:title>
      </cc:Work>
    </rdf:RDF>
  </metadata>
  <defs
     id="defs819" />
  <sodipodi:namedview
     pagecolor="#ffffff"
     bordercolor="#666666"
     borderopacity="1"
     objecttolerance="10"
     gridtolerance="10"
     guidetolerance="10"
     inkscape:pageopacity="0"
     inkscape:pageshadow="2"
     inkscape:window-width="1920"
     inkscape:window-height="1017"
     id="namedview817"
     showgrid="false"
     inkscape:zoom="1.696"
     inkscape:cx="250"
     inkscape:cy="250"
     inkscape:window-x="-8"
     inkscape:window-y="-8"
     inkscape:window-maximized="1"
     inkscape:current-layer="svg815" />
  <path
     style="fill:#040404"
     d="m 223.91038,498.99469 c -2.2,-0.43512 -7.825,-1.31784 -12.5,-1.96159 -28.9904,-3.99199 -63.28731,-16.34944 -90.77454,-32.70681 C 87.772096,444.76942 54.640955,411.63828 35.084087,378.77454 18.843583,351.48369 6.5084271,317.36662 2.4449861,288.5 c -0.619371,-4.4 -1.555537,-10.43755 -2.080369,-13.41678 -1.236634,-7.01981 -1.236634,-43.14663 0,-50.16644 C 0.8894491,221.93755 1.8256151,215.9 2.4449861,211.5 6.5084271,182.63338 18.843583,148.51631 35.084087,121.22546 54.640955,88.361719 87.772096,55.230578 120.63584,35.67371 147.92669,19.433206 182.04376,7.0980499 210.91038,3.0346085 c 4.4,-0.6193709 10.43755,-1.5555369 13.41678,-2.0803688 7.01981,-1.2366339 43.14663,-1.2366339 50.16644,0 2.97923,0.5248319 9.01678,1.4609979 13.41678,2.0803688 28.86662,4.0634414 62.98369,16.3985975 90.27454,32.6391015 32.86374,19.556868 65.99488,52.688009 85.55175,85.55175 16.2405,27.29085 28.57566,61.40792 32.6391,90.27454 0.61937,4.4 1.55554,10.43755 2.08037,13.41678 1.23663,7.01981 1.23663,43.14663 0,50.16644 -0.52483,2.97923 -1.461,9.01678 -2.08037,13.41678 -4.06344,28.86662 -16.3986,62.98369 -32.6391,90.27454 -19.55687,32.86374 -52.68801,65.99488 -85.55175,85.55175 -27.29085,16.2405 -61.40792,28.57566 -90.27454,32.6391 -4.4,0.61937 -10.43755,1.55554 -13.41678,2.08037 -6.40269,1.12792 -44.81826,1.08913 -50.58322,-0.0511 z m 55.5,-72.16347 c 24.62026,-3.9659 52.70791,-15.57647 74,-30.5893 12.26027,-8.64459 33.59733,-29.98165 42.24192,-42.24192 38.674,-54.84976 43.80891,-126.67336 13.2806,-185.7602 -9.28246,-17.96599 -17.91734,-29.67819 -33.00074,-44.76158 -15.08339,-15.0834 -26.79559,-23.71829 -44.76158,-33.000745 -51.14421,-26.424595 -112.37619,-26.424595 -163.5204,0 -17.96599,9.282455 -29.67819,17.917345 -44.76158,33.000745 -15.0834,15.08339 -23.71829,26.79559 -33.000748,44.76158 -26.424595,51.14421 -26.424595,112.37619 0,163.5204 9.282458,17.96599 17.917348,29.67819 33.000748,44.76158 15.38982,15.38983 27.06352,23.93526 45.55784,33.34945 34.81424,17.72153 71.46271,23.32297 110.96394,16.95999 z M 220.64504,334.25 220.91038,305.5 h 28.5 28.5 l 0.26534,28.75 0.26533,28.75 h -29.03067 -29.03067 z m 13.32264,-58.15728 c -0.3084,-0.49901 -3.3466,-16.81151 -6.75154,-36.25 L 221.02533,204.5 220.66843,170.75 220.31154,137 h 29.0755 29.0755 l -0.27608,33.25 -0.27608,33.25 -5.30852,34.5 c -2.91968,18.975 -5.72254,35.5125 -6.22856,36.75 -0.89823,2.19666 -1.28663,2.25 -16.38246,2.25 -8.50434,0 -15.71476,-0.40828 -16.02316,-0.90728 z"
     id="path825"
     inkscape:connector-curvature="0" />
</svg>
