<?xml version="1.0" encoding="UTF-8" standalone="no"?>
<!-- Created with Inkscape (http://www.inkscape.org/) -->

<svg
   xmlns:dc="http://purl.org/dc/elements/1.1/"
   xmlns:cc="http://creativecommons.org/ns#"
   xmlns:rdf="http://www.w3.org/1999/02/22-rdf-syntax-ns#"
   xmlns:svg="http://www.w3.org/2000/svg"
   xmlns="http://www.w3.org/2000/svg"
   xmlns:sodipodi="http://sodipodi.sourceforge.net/DTD/sodipodi-0.dtd"
   xmlns:inkscape="http://www.inkscape.org/namespaces/inkscape"
   version="1.1"
   id="svg820"
   width="3200"
   height="3200"
   viewBox="0 0 3200 3200"
   sodipodi:docname="success.svg"
   inkscape:version="0.92.2 (5c3e80d, 2017-08-06)">
  <metadata
     id="metadata826">
    <rdf:RDF>
      <cc:Work
         rdf:about="">
        <dc:format>image/svg+xml</dc:format>
        <dc:type
           rdf:resource="http://purl.org/dc/dcmitype/StillImage" />
        <dc:title></dc:title>
      </cc:Work>
    </rdf:RDF>
  </metadata>
  <defs
     id="defs824" />
  <sodipodi:namedview
     pagecolor="#ffffff"
     bordercolor="#666666"
     borderopacity="1"
     objecttolerance="10"
     gridtolerance="10"
     guidetolerance="10"
     inkscape:pageopacity="0"
     inkscape:pageshadow="2"
     inkscape:window-width="1920"
     inkscape:window-height="1017"
     id="namedview822"
     showgrid="false"
     inkscape:zoom="0.265"
     inkscape:cx="1600"
     inkscape:cy="1600"
     inkscape:window-x="-8"
     inkscape:window-y="-8"
     inkscape:window-maximized="1"
     inkscape:current-layer="svg820" />
  <path
     style="fill:#000000"
     d="m 1553.5283,3206.9492 c -57.1408,-2.59 -79.513,-4.1141 -117,-7.9707 -315.8395,-32.4929 -613.78098,-158.275 -858.5,-362.4334 -72.94683,-60.8564 -143.80846,-131.7158 -204.50424,-204.4979 -204.23603,-244.9055 -329.933149,-542.6508 -362.427092,-858.5 -6.219278,-60.4529 -8.031282,-97.9056 -8.031282,-166 0,-68.0944 1.812004,-105.5471 8.031282,-166 C 43.589911,1125.7077 169.37205,827.76619 373.53042,583.04717 434.38676,510.10034 505.24619,439.23871 578.0283,378.54293 822.93376,174.3069 1120.6791,48.609779 1436.5283,16.115836 c 60.4529,-6.219278 97.9056,-8.031282 166,-8.031282 68.0944,0 105.5471,1.812004 166,8.031282 315.8492,32.493943 613.5945,158.191064 858.5,362.427094 72.7821,60.69578 143.6415,131.55741 204.4979,204.50424 204.1584,244.71902 329.9405,542.66053 362.4334,858.50003 6.2193,60.4529 8.0313,97.9056 8.0313,166 0,68.0944 -1.812,105.5471 -8.0313,166 -32.4928,315.8379 -158.1983,613.6033 -362.4271,858.5 -60.6957,72.7821 -131.5574,143.6415 -204.5042,204.4979 -205.0909,171.0984 -448.3916,287.7298 -709,339.8744 -75.5104,15.1087 -148.1601,24.1826 -233.5,29.164 -17.8418,1.0414 -115.656,2.0612 -131,1.3657 z m 123,-451.8809 c 249.4386,-16.8757 479.5317,-110.0908 670,-271.4296 44.6444,-37.8166 94.2749,-87.4471 132.0915,-132.0915 107.2475,-126.6108 184.8901,-271.5576 229.7994,-429 65.5533,-229.816 57.5964,-476.9322 -22.5878,-701.5 -105.7839,-296.26395 -329.9292,-537.60387 -617.8593,-665.25646 -295.3273,-130.93211 -635.5603,-130.93211 -930.8876,0 -230.3007,102.10284 -421.67117,277.94131 -543.23666,499.14656 -119.77859,217.9537 -165.13477,470.3468 -129.2273,719.1099 38.95466,269.8738 174.56973,518.6743 381.18361,699.3227 188.65205,164.9438 423.45775,262.9443 673.72415,281.1913 44.2961,3.2296 113.4566,3.453 157,0.5071 z M 1077.774,1983.2972 C 927.47941,1833.0097 804.24001,1709.1978 803.90868,1708.1597 c -0.47887,-1.5004 24.38702,-26.8896 121.25861,-123.8106 67.02355,-67.0577 122.70921,-122.3941 123.74581,-122.9698 1.6533,-0.9182 20.1942,17.2611 151.0045,148.0606 82.0159,82.009 149.6984,149.1073 150.4057,149.1073 0.7072,0 181.2945,-179.775 401.3051,-399.5 220.0106,-219.725 400.4202,-399.50003 400.9103,-399.50003 0.8916,0 246.787,244.34533 248.2819,246.71673 0.4357,0.6912 0.3505,2.0503 -0.1895,3.02 -1.8664,3.3521 -1046.6124,1047.2633 -1048.1007,1047.2633 -0.8214,0 -124.4618,-122.9625 -274.7564,-273.25 z"
     id="path830"
     inkscape:connector-curvature="0" />
</svg>
