<svg xmlns="http://www.w3.org/2000/svg" xmlns:xlink="http://www.w3.org/1999/xlink" width="0" height="0" style="position:absolute">
	
		<symbol id="icon-close" viewBox="0 0 3201 3201">
			<path d="M185 3199.952c-53.416-6.575-99.73-30.85-133.293-69.869C25.895 3100.076 9.495 3064.2 3.445 3024.5c-2.248-14.753-2.254-43.186-.011-58 5.607-37.04 20.967-72.175 43.933-100.5 3.345-4.125 288.693-290.441 634.107-636.259 345.414-345.817 628.143-629.105 628.286-629.529.143-.424-282.177-282.664-627.377-627.201C337.183 628.474 51.701 342.962 47.978 338.54c-20.873-24.791-36.68-57.365-43.387-89.397-11.45-54.7-.68-111.121 30.015-157.229C81.308 21.764 166.169-12.778 249.143 4.591c31.828 6.663 64.119 22.276 89.01 43.036 4.319 3.603 290.234 289.214 635.367 634.692l627.514 628.142 628.733-628.582C2575.57 336.16 2861.875 50.595 2866 47.292c28.911-23.15 63.546-38.265 100.5-43.858 14.915-2.257 43.316-2.258 58-.002 22.102 3.395 41.645 9.46 61 18.93 59.96 29.337 100.831 83.824 112.62 150.138 3.013 16.949 3.288 50.22.545 65.957-6.357 36.476-18.813 65.294-40.666 94.082-4.899 6.455-169.831 171.903-576.696 578.5-313.409 313.204-596.715 596.23-629.569 628.95-32.854 32.718-59.734 60.169-59.734 61 0 .831 281.732 283.212 626.07 627.511 344.34 344.3 629.496 630.05 633.682 635 51.47 60.863 62.71 147.164 28.586 219.48-10.432 22.106-22.793 39.542-40.804 57.556-19.068 19.072-39.394 32.934-63.443 43.269-67.822 29.146-144.458 19.924-204.86-24.651-6.488-4.788-170.759-168.434-639.335-636.9-397.36-397.267-631.176-630.327-632.15-630.105-.851.193-158.275 157.401-349.83 349.351-746.15 747.686-907.998 909.38-917.354 916.482-28.693 21.78-58.06 34.505-93.576 40.547-11.236 1.911-43.178 2.753-53.986 1.423z"></path>
		</symbol>
	
		<symbol id="icon-error" viewBox="0 0 500 500">
			<path d="M223.91 498.995c-2.2-.435-7.825-1.318-12.5-1.962-28.99-3.992-63.287-16.35-90.774-32.707-32.864-19.557-65.995-52.688-85.552-85.551-16.24-27.291-28.576-61.408-32.639-90.275-.62-4.4-1.556-10.438-2.08-13.417-1.237-7.02-1.237-43.146 0-50.166.524-2.98 1.46-9.017 2.08-13.417 4.063-28.867 16.399-62.984 32.64-90.275 19.556-32.863 52.687-65.994 85.55-85.551 27.292-16.24 61.409-28.576 90.275-32.64 4.4-.619 10.438-1.555 13.417-2.08 7.02-1.236 43.147-1.236 50.167 0 2.979.525 9.016 1.461 13.416 2.08 28.867 4.064 62.984 16.4 90.275 32.64 32.864 19.557 65.995 52.688 85.552 85.551 16.24 27.291 28.575 61.408 32.639 90.275.62 4.4 1.555 10.438 2.08 13.417 1.237 7.02 1.237 43.146 0 50.166-.525 2.98-1.46 9.017-2.08 13.417-4.064 28.867-16.399 62.984-32.64 90.275-19.556 32.863-52.687 65.994-85.551 85.551-27.29 16.24-61.408 28.576-90.275 32.64-4.4.619-10.437 1.555-13.416 2.08-6.403 1.128-44.819 1.089-50.584-.051zm55.5-72.164c24.62-3.966 52.708-15.576 74-30.59 12.26-8.644 33.598-29.98 42.242-42.241 38.674-54.85 43.81-126.673 13.28-185.76-9.282-17.966-17.916-29.678-33-44.762-15.083-15.083-26.795-23.718-44.761-33-51.145-26.425-112.377-26.425-163.52 0-17.967 9.282-29.679 17.917-44.762 33-15.084 15.084-23.719 26.796-33.001 44.762-26.425 51.144-26.425 112.376 0 163.52 9.282 17.966 17.917 29.678 33 44.762 15.39 15.39 27.064 23.935 45.558 33.35 34.815 17.72 71.463 23.322 110.964 16.96zm-58.765-92.581l.265-28.75h57l.266 28.75.265 28.75H220.38zm13.323-58.157c-.309-.5-3.347-16.812-6.752-36.25l-6.19-35.343-.358-33.75-.356-33.75H278.463l-.277 33.25-.276 33.25-5.308 34.5c-2.92 18.975-5.723 35.513-6.229 36.75-.898 2.197-1.286 2.25-16.382 2.25-8.504 0-15.715-.408-16.023-.907z" fill="#040404"></path>
		</symbol>
	
		<symbol id="icon-success" viewBox="0 0 3200 3200">
			<path d="M1553.528 3206.95c-57.14-2.59-79.513-4.115-117-7.971-315.84-32.493-613.78-158.275-858.5-362.434-72.947-60.856-143.808-131.716-204.504-204.498-204.236-244.905-329.933-542.65-362.427-858.5-6.22-60.453-8.031-97.905-8.031-166 0-68.094 1.812-105.547 8.031-166 32.493-315.84 158.275-613.78 362.433-858.5C434.387 510.1 505.246 439.24 578.028 378.543c244.906-204.236 542.651-329.933 858.5-362.427 60.453-6.22 97.906-8.031 166-8.031 68.095 0 105.547 1.812 166 8.03 315.85 32.495 613.595 158.192 858.5 362.428 72.782 60.696 143.642 131.557 204.498 204.504 204.159 244.72 329.94 542.66 362.434 858.5 6.219 60.453 8.03 97.906 8.03 166 0 68.095-1.811 105.547-8.03 166-32.493 315.838-158.199 613.603-362.428 858.5-60.695 72.782-131.557 143.642-204.504 204.498-205.09 171.098-448.391 287.73-709 339.874-75.51 15.11-148.16 24.183-233.5 29.165-17.842 1.04-115.656 2.06-131 1.365zm123-451.882c249.439-16.875 479.532-110.09 670-271.43 44.645-37.816 94.275-87.446 132.092-132.09 107.247-126.612 184.89-271.558 229.8-429 65.552-229.817 57.596-476.933-22.589-701.5-105.784-296.265-329.929-537.605-617.859-665.257-295.327-130.932-635.56-130.932-930.888 0-230.3 102.103-421.67 277.941-543.236 499.146-119.779 217.954-165.135 470.347-129.227 719.11 38.954 269.874 174.57 518.674 381.183 699.323 188.652 164.944 423.458 262.944 673.724 281.191 44.296 3.23 113.457 3.453 157 .507zm-598.754-771.77c-150.295-150.288-273.534-274.1-273.865-275.138-.48-1.5 24.387-26.89 121.258-123.81 67.024-67.059 122.71-122.395 123.746-122.97 1.653-.919 20.194 17.26 151.005 148.06 82.016 82.009 149.698 149.107 150.405 149.107.707 0 181.295-179.775 401.305-399.5 220.011-219.725 400.42-399.5 400.91-399.5.892 0 246.788 244.346 248.283 246.717.435.691.35 2.05-.19 3.02-1.866 3.352-1046.612 1047.263-1048.1 1047.263-.822 0-124.462-122.962-274.757-273.25z"></path>
		</symbol>
	
</svg>
